<svg width="6281" height="2001" xmlns="http://www.w3.org/2000/svg" xmlns:xlink="http://www.w3.org/1999/xlink" overflow="hidden"><defs><clipPath id="clip0"><rect x="-2020" y="-588" width="6281" height="2001"/></clipPath></defs><g clip-path="url(#clip0)" transform="translate(2020 588)"><text fill="#FFC519" font-family="Roboto Black,Roboto Black_MSFontService,sans-serif" font-style="italic" font-weight="900" font-size="952" transform="translate(-747.955 603)">FOOD</text><text fill="#FFFFFF" font-family="Roboto Black,Roboto Black_MSFontService,sans-serif" font-style="italic" font-weight="900" font-size="952" transform="translate(1688.56 603)">BIKE</text><path d="M-2019 489C-2019 376.886-1928.11 286-1816 286-1703.89 286-1613 376.886-1613 489-1613 601.114-1703.89 692-1816 692-1928.11 692-2019 601.114-2019 489ZM-1948.43 489C-1948.43 562.139-1889.14 621.429-1816 621.429-1742.86 621.429-1683.57 562.139-1683.57 489-1683.57 415.861-1742.86 356.571-1816 356.571-1889.14 356.571-1948.43 415.861-1948.43 489Z" fill="#FFFFFF" fill-rule="evenodd"/><path d="M-1242 489C-1242 376.886-1151.11 286-1039 286-926.886 286-836 376.886-836 489-836 601.114-926.886 692-1039 692-1151.11 692-1242 601.114-1242 489ZM-1171.43 489C-1171.43 562.139-1112.14 621.429-1039 621.429-965.861 621.429-906.571 562.139-906.571 489-906.571 415.861-965.861 356.571-1039 356.571-1112.14 356.571-1171.43 415.861-1171.43 489Z" fill="#FFFFFF" fill-rule="evenodd"/><path d="M-1656.51 107.817C-1592.92-27.942-1349.18-3.81216-1264 48.4983-1324.83 134.991-1520.81 99.2008-1524 167.798-1527.19 236.396-1348.09 237.39-1276.54 293.064-1290.34 364.533-1475.08 507.583-1586.28 588-1505.8 514.984-1413.39 419.102-1392.53 348.074-1579.24 273.622-1720.1 243.576-1656.51 107.817Z" fill="#FFFFFF" fill-rule="evenodd"/><path d="M-1260.64-41.1376C-1160.66-9.41862-1135.49 185.713-914 145.192-1044.45 191.027-1176.11 137.833-1233.82 49.5363-1291.54-38.7608-1447.04-11.5773-1502-15.2308-1462.6-38.8126-1360.63-72.8566-1260.64-41.1376Z" fill="#FFFFFF" fill-rule="evenodd"/><path d="M-1217.59-109.076C-1204.05-139.7-1163.76-151.569-1127.6-135.585-1091.43-119.601-1073.09-81.817-1086.63-51.1922-1100.16-20.5673-1140.45-8.69864-1176.61-24.6827-1212.78-40.6668-1231.12-78.4507-1217.59-109.076Z" fill="#FFFFFF" fill-rule="evenodd"/><path d="M-1970.38 10.893C-1919.16-30.3456-1775.68-23.5647-1679 6.91709-1709.95 69.9567-1742.22 176.732-1693.59 257L-1986.29 254.349C-2006.18 168.78-2021.59 52.1315-1970.38 10.893Z" fill="#FFC519" fill-rule="evenodd"/></g></svg>